<svg width="30" height="30" viewBox="0 0 30 30" fill="none" xmlns="http://www.w3.org/2000/svg">
<g id="calendar-badge 1">
<path id="Vector" d="M24.375 20C22 20 20 22 20 24.375C20 26.75 22 28.75 24.375 28.75C26.75 28.75 28.75 26.75 28.75 24.375C28.75 22 26.75 20 24.375 20ZM17.7625 26.25H6.25C4.875 26.25 3.75 25.1375 3.75 23.75V6.25C3.75 4.8625 4.8625 3.75 6.25 3.75H7.5V1.25H10V3.75H20V1.25H22.5V3.75H23.75C25.125 3.75 26.25 4.8625 26.25 6.25V17.7625C25.625 17.6 25 17.5 24.375 17.5C24.1625 17.5 23.9625 17.5 23.75 17.5375V10H6.25V23.75H17.5375C17.5 23.9625 17.5 24.1625 17.5 24.375C17.5 25 17.6 25.625 17.7625 26.25Z" fill="#677480"/>
</g>
</svg>
